<svg version="1.2" baseProfile="tiny-ps" xmlns="http://www.w3.org/2000/svg" viewBox="0 0 1000 300" width="1000" height="300">
	<title>New Project</title>
	<style>
		tspan { white-space:pre }
		.shp0 { opacity: 0.349;fill: #ffffff } 
		.shp1 { fill: #ffffff } 
	</style>
	<path id="Shape 1" class="shp0" d="M-89.5 390.66C369.5 68.16 312.5 371.33 483.5 201.66C654.5 32 621.5 318.66 808 143C994.5 -32.66 1026.5 293 1010 319M-89.5 390.66C369.5 68.16 312.5 371.33 483.5 201.66C654.5 32 621.5 318.66 808 143C994.5 -32.66 1026.5 293 1010 319" />
	<path id="Shape 1 copy" class="shp1" d="M-19.5 397.66C439.5 75.16 382.5 378.33 553.5 208.66C724.5 39 691.5 325.66 878 150C1064.5 -25.66 1096.5 300 1080 326M-19.5 397.66C439.5 75.16 382.5 378.33 553.5 208.66C724.5 39 691.5 325.66 878 150C1064.5 -25.66 1096.5 300 1080 326" />
</svg>